<?xml version="1.0" encoding="UTF-8"?>
<svg version="1.1" xmlns="http://www.w3.org/2000/svg" width="112" height="113">
<path d="M0 0 C36.96 0 73.92 0 112 0 C112 37.29 112 74.58 112 113 C75.04 113 38.08 113 0 113 C0 75.71 0 38.42 0 0 Z " fill="#FAFBFD" transform="translate(0,0)"/>
<path d="M0 0 C36.96 0 73.92 0 112 0 C112 11.88 112 23.76 112 36 C111.34 36 110.68 36 110 36 C109.67 37.32 109.34 38.64 109 40 C107.35 40.33 105.7 40.66 104 41 C104.66 40.01 105.32 39.02 106 38 C105.47826202 38.2630896 104.95652405 38.5261792 104.41897583 38.79724121 C99.00356517 41.52701672 93.5853804 44.25122369 88.16552734 46.97216797 C86.14136748 47.98928636 84.11792691 49.0078375 82.09521484 50.02783203 C79.19294738 51.49105262 76.28815855 52.9491538 73.3828125 54.40625 C72.47443634 54.86559937 71.56606018 55.32494873 70.63015747 55.79821777 C69.78943695 56.21865356 68.94871643 56.63908936 68.08251953 57.07226562 C67.34083527 57.44532837 66.599151 57.81839111 65.83499146 58.20275879 C64 59 64 59 62 59 C61.67 53.72 61.34 48.44 61 43 C56.96481448 45.6823786 52.93016629 48.36553527 48.89672852 51.05053711 C47.53080575 51.95949895 46.16460479 52.8680429 44.7980957 53.77612305 C34.20521568 60.81596645 23.72459944 67.9970793 13.30078125 75.28515625 C11.97139757 76.21099983 10.64197222 77.13678358 9.3125 78.0625 C8.62478516 78.54654297 7.93707031 79.03058594 7.22851562 79.52929688 C2.22618679 83 2.22618679 83 0 83 C0 55.61 0 28.22 0 0 Z " fill="#FCFDFD" transform="translate(0,0)"/>
<path d="M0 0 C18.81 0 37.62 0 57 0 C57 5.28 57 10.56 57 16 C43.8 16 30.6 16 17 16 C17 18.97 17 21.94 17 25 C14.404606 27.30175454 12.62655436 28.55898417 9.625 30.0625 C8.57699219 30.64547852 8.57699219 30.64547852 7.5078125 31.24023438 C2.44580853 34 2.44580853 34 0 34 C0 22.78 0 11.56 0 0 Z " fill="#0B2F82" transform="translate(30,14)"/>
<path d="M0 0 C0 4.95 0 9.9 0 15 C13.2 15 26.4 15 40 15 C40 20.28 40 25.56 40 31 C21.52 31 3.04 31 -16 31 C-16 23.41 -16 15.82 -16 8 C-6.71264368 0 -6.71264368 0 0 0 Z " fill="#052A80" transform="translate(46,76)"/>
<path d="M0 0 C0.99 0.495 0.99 0.495 2 1 C-9.51294789 9.51618961 -21.06820104 17.96895356 -32.69140625 26.33398438 C-35.16319805 28.11777322 -37.62894802 29.90969169 -40.09375 31.703125 C-40.92511475 32.30697021 -41.75647949 32.91081543 -42.61303711 33.53295898 C-44.21933111 34.69993566 -45.82435808 35.86865876 -47.42797852 37.03930664 C-48.14397217 37.55871826 -48.85996582 38.07812988 -49.59765625 38.61328125 C-50.23195557 39.07516846 -50.86625488 39.53705566 -51.51977539 40.01293945 C-53 41 -53 41 -54 41 C-54.33 35.39 -54.66 29.78 -55 24 C-58.31262215 25.58307813 -61.62509012 27.16647782 -64.9375 28.75 C-65.95553711 29.23645996 -66.97357422 29.72291992 -68.02246094 30.22412109 C-73.68193768 32.92981614 -79.33784485 35.64265842 -84.98828125 38.3671875 C-86.1182251 38.91149414 -87.24816895 39.45580078 -88.41235352 40.01660156 C-90.6127724 41.07697459 -92.81249661 42.13879056 -95.01147461 43.20214844 C-96.01315674 43.68458008 -97.01483887 44.16701172 -98.046875 44.6640625 C-98.93213867 45.09154785 -99.81740234 45.5190332 -100.72949219 45.95947266 C-103 47 -103 47 -106 48 C-106 47.34 -106 46.68 -106 46 C-103.86420768 44.4319111 -101.72929749 42.98732977 -99.5 41.5625 C-98.09694711 40.64691911 -96.69462449 39.73021835 -95.29296875 38.8125 C-94.57157715 38.34199219 -93.85018555 37.87148437 -93.10693359 37.38671875 C-89.97577006 35.32588342 -86.8938383 33.19681016 -83.8125 31.0625 C-80.87663493 29.03928783 -77.93850535 27.01937515 -75 25 C-74.46070862 24.62931396 -73.92141724 24.25862793 -73.36578369 23.87670898 C-69.59979974 21.2892394 -65.8297146 18.70787343 -62.05575562 16.13204956 C-60.77044697 15.25362225 -59.48628209 14.373519 -58.20327759 13.49172974 C-56.39106644 12.24662544 -54.57494365 11.00744002 -52.7578125 9.76953125 C-51.6970752 9.04354736 -50.63633789 8.31756348 -49.54345703 7.56958008 C-47 6 -47 6 -45 6 C-44.32414723 9.970635 -43.93908063 13.72258108 -43.96875 17.75390625 C-43.97326172 18.55256104 -43.97777344 19.35121582 -43.98242188 20.17407227 C-43.98822266 20.77662842 -43.99402344 21.37918457 -44 22 C-43.45320587 21.72216171 -42.90641174 21.44432343 -42.3430481 21.1580658 C-36.67052058 18.27768394 -30.99247349 15.40841847 -25.31103516 12.5456543 C-23.18914327 11.47462733 -21.06869376 10.4007379 -18.94970703 9.32397461 C-15.91029117 7.7801105 -12.86590048 6.24648835 -9.8203125 4.71484375 C-8.86818878 4.22845932 -7.91606506 3.74207489 -6.93508911 3.24095154 C-5.61394608 2.58015343 -5.61394608 2.58015343 -4.26611328 1.90600586 C-3.48889923 1.51295761 -2.71168518 1.11990936 -1.91091919 0.71495056 C-1.28031586 0.47901688 -0.64971252 0.24308319 0 0 Z " fill="#4385E2" transform="translate(106,37)"/>
<path d="M0 0 C0.66 0.33 1.32 0.66 2 1 C0.68 2.32 -0.64 3.64 -2 5 C-1.34 6.32 -0.68 7.64 0 9 C-15.345 16.425 -15.345 16.425 -31 24 C-31.33 23.34 -31.66 22.68 -32 22 C-31.1028125 21.40574219 -30.205625 20.81148437 -29.28125 20.19921875 C-22.19449644 15.49549396 -15.13691792 10.75221207 -8.125 5.9375 C-7.42955078 5.46078857 -6.73410156 4.98407715 -6.01757812 4.49291992 C-2.86533774 2.42528781 -2.86533774 2.42528781 0 0 Z " fill="#4B88E0" transform="translate(32,61)"/>
<path d="M0 0 C0.66 0.33 1.32 0.66 2 1 C-4.27 5.62 -10.54 10.24 -17 15 C-17.33 14.34 -17.66 13.68 -18 13 C-20.01669827 11.86649466 -20.01669827 11.86649466 -22 11 C-18.38148572 9.13296752 -14.75423375 7.28359721 -11.125 5.4375 C-9.57619141 4.63795898 -9.57619141 4.63795898 -7.99609375 3.82226562 C-7.00996094 3.32275391 -6.02382812 2.82324219 -5.0078125 2.30859375 C-3.64100342 1.60947876 -3.64100342 1.60947876 -2.24658203 0.89624023 C-1.50520996 0.60048096 -0.76383789 0.30472168 0 0 Z " fill="#4F8BDF" transform="translate(106,37)"/>
<path d="M0 0 C0.99 0 1.98 0 3 0 C3 0.66 3 1.32 3 2 C3.99 2.33 4.98 2.66 6 3 C-0.93 6.3 -7.86 9.6 -15 13 C-15.33 12.34 -15.66 11.68 -16 11 C-14.92878906 10.28972656 -13.85757812 9.57945313 -12.75390625 8.84765625 C-11.35673055 7.91933146 -9.95959733 6.99094274 -8.5625 6.0625 C-7.85544922 5.59392578 -7.14839844 5.12535156 -6.41992188 4.64257812 C-5.74638672 4.19462891 -5.07285156 3.74667969 -4.37890625 3.28515625 C-3.7557251 2.87144775 -3.13254395 2.45773926 -2.49047852 2.03149414 C-1.01980114 1.0794855 -1.01980114 1.0794855 0 0 Z " fill="#4D89DD" transform="translate(16,72)"/>
<path d="M0 0 C0.99 0.33 1.98 0.66 3 1 C3 1.66 3 2.32 3 3 C2.195625 3.12375 1.39125 3.2475 0.5625 3.375 C-0.7059375 3.684375 -0.7059375 3.684375 -2 4 C-2.33 4.66 -2.66 5.32 -3 6 C-4.32 5.67 -5.64 5.34 -7 5 C-5.90554162 4.13342884 -4.79902219 3.28207276 -3.6875 2.4375 C-3.07261719 1.96183594 -2.45773438 1.48617187 -1.82421875 0.99609375 C-1.22222656 0.66738281 -0.62023438 0.33867188 0 0 Z " fill="#538CDD" transform="translate(41,55)"/>
<path d="M0 0 C0.99 0.66 1.98 1.32 3 2 C-2.445 4.475 -2.445 4.475 -8 7 C-8 6.34 -8 5.68 -8 5 C-6.25 3.7109375 -6.25 3.7109375 -4 2.375 C-3.2575 1.92898437 -2.515 1.48296875 -1.75 1.0234375 C-1.1725 0.68570313 -0.595 0.34796875 0 0 Z " fill="#6290D7" transform="translate(8,78)"/>
<path d="M0 0 C1.32 0.66 2.64 1.32 4 2 C0.375 5 0.375 5 -3 5 C-3 4.01 -3 3.02 -3 2 C-2.01 1.34 -1.02 0.68 0 0 Z " fill="#0F3180" transform="translate(34,42)"/>
<path d="M0 0 C0.66 0.33 1.32 0.66 2 1 C-1.17320782 4.53586014 -3.16743695 6.58578031 -8 7 C-5.4837822 4.39391727 -2.94865641 2.10618315 0 0 Z " fill="#E4F3FE" transform="translate(68,66)"/>
<path d="M0 0 C0.66 0.33 1.32 0.66 2 1 C-0.31 2.65 -2.62 4.3 -5 6 C-5.99 5.34 -6.98 4.68 -8 4 C-6.71349294 3.30289269 -5.42059335 2.61757124 -4.125 1.9375 C-3.40570313 1.55464844 -2.68640625 1.17179687 -1.9453125 0.77734375 C-1.30335937 0.52082031 -0.66140625 0.26429687 0 0 Z " fill="#6C99DA" transform="translate(106,37)"/>
<path d="M0 0 C-1 3 -1 3 -3.0625 4.1875 C-3.701875 4.455625 -4.34125 4.72375 -5 5 C-5.33 3.68 -5.66 2.36 -6 1 C-4 0 -4 0 0 0 Z " fill="#5C8FDD" transform="translate(100,42)"/>
</svg>
